<svg width="40" height="40" viewBox="0 0 40 40" fill="none" xmlns="http://www.w3.org/2000/svg">
<path d="M20 20V3.33333C20 2.86111 20.1597 2.46528 20.4792 2.14583C20.7986 1.82639 21.1944 1.66667 21.6667 1.66667C22.1389 1.66667 22.5347 1.82639 22.8542 2.14583C23.1736 2.46528 23.3333 2.86111 23.3333 3.33333V20H20ZM13.3333 20V5C13.3333 4.52778 13.4931 4.13195 13.8125 3.8125C14.1319 3.49306 14.5278 3.33333 15 3.33333C15.4722 3.33333 15.8681 3.49306 16.1875 3.8125C16.5069 4.13195 16.6667 4.52778 16.6667 5V20H13.3333ZM20.8333 38.3333C16.8889 38.3333 13.5417 36.9583 10.7917 34.2083C8.04167 31.4583 6.66667 28.1111 6.66667 24.1667V8.33333C6.66667 7.86111 6.82639 7.46528 7.14583 7.14583C7.46528 6.82639 7.86111 6.66667 8.33333 6.66667C8.80556 6.66667 9.20139 6.82639 9.52083 7.14583C9.84028 7.46528 10 7.86111 10 8.33333V24.1667C10 27.1944 11.0486 29.7569 13.1458 31.8542C15.2431 33.9514 17.8056 35 20.8333 35C23.8611 35 26.4236 33.9514 28.5208 31.8542C30.6181 29.7569 31.6667 27.1944 31.6667 24.1667V18.3333C31.1944 18.3333 30.7986 18.4931 30.4792 18.8125C30.1597 19.1319 30 19.5278 30 20V26.6667H25C24.0833 26.6667 23.2986 26.9931 22.6458 27.6458C21.9931 28.2986 21.6667 29.0833 21.6667 30V31.6667H18.3333V30C18.3333 28.1667 18.9861 26.5972 20.2917 25.2917C21.5972 23.9861 23.1667 23.3333 25 23.3333H26.6667V6.66667C26.6667 6.19445 26.8264 5.79861 27.1458 5.47917C27.4653 5.15972 27.8611 5 28.3333 5C28.8056 5 29.2014 5.15972 29.5208 5.47917C29.8403 5.79861 30 6.19445 30 6.66667V15.2917C30.2778 15.2083 30.5486 15.1389 30.8125 15.0833C31.0764 15.0278 31.3611 15 31.6667 15H35V24.1667C35 28.1111 33.625 31.4583 30.875 34.2083C28.125 36.9583 24.7778 38.3333 20.8333 38.3333Z" fill="#373847"/>
</svg>
