<svg width="48" height="49" viewBox="0 0 48 49" fill="none" xmlns="http://www.w3.org/2000/svg">
<rect width="48" height="49" rx="24" fill="#322F35"/>
<path fill-rule="evenodd" clip-rule="evenodd" d="M31.2003 19.6C31.2003 23.6593 27.9767 26.95 24.0003 26.95C20.0238 26.95 16.8003 23.6593 16.8003 19.6C16.8003 15.5407 20.0238 12.25 24.0003 12.25C27.9767 12.25 31.2003 15.5407 31.2003 19.6ZM28.8003 19.6C28.8003 22.3062 26.6513 24.5 24.0003 24.5C21.3493 24.5 19.2003 22.3062 19.2003 19.6C19.2003 16.8938 21.3493 14.7 24.0003 14.7C26.6513 14.7 28.8003 16.8938 28.8003 19.6Z" fill="#FDF7FF"/>
<path d="M24.0003 30.625C16.231 30.625 9.61142 35.3148 7.08984 41.8853C7.70412 42.5079 8.35121 43.0969 9.02824 43.6493C10.9059 37.6169 16.7964 33.075 24.0003 33.075C31.2042 33.075 37.0947 37.6169 38.9724 43.6493C39.6494 43.0969 40.2965 42.5079 40.9108 41.8853C38.3892 35.3148 31.7696 30.625 24.0003 30.625Z" fill="#FDF7FF"/>
</svg>
